# xmcd CD database file
#
# Track frame offsets:
#	150
#	38346
#	61073
#	85750
#	117476
#	143455
#	168525
#	189640
#	191818
#
# Disc length: 2789 seconds
#
# Revision: 0
# Processed by: cddbd v1.4PL0 Copyright (c) Steve Scherf et al.
# Submitted via: CDex 1.50Beta5
#
DISCID=710ae309
DTITLE=Planetjazz - 9 funktional diva tracks
DYEAR=1900
DGENRE=Jazz
TTITLE0=jesus was a girl
TTITLE1=bmb-theme
TTITLE2=hypecontrl.
TTITLE3=the silver beam
TTITLE4=commercial track
TTITLE5=the star from lucky star
TTITLE6=lets do the chocolate death
TTITLE7=lucky star
TTITLE8=1410
EXTD=
EXTT0=
EXTT1=
EXTT2=
EXTT3=
EXTT4=
EXTT5=
EXTT6=
EXTT7=
EXTT8=
PLAYORDER=
